<?xml version="1.0" standalone="no"?>
<!DOCTYPE svg PUBLIC "-//W3C//DTD SVG 20010904//EN"
 "http://www.w3.org/TR/2001/REC-SVG-20010904/DTD/svg10.dtd">
<svg version="1.0" xmlns="http://www.w3.org/2000/svg"
 width="940.000000pt" height="964.000000pt" viewBox="0 0 940.000000 964.000000"
 preserveAspectRatio="xMidYMid meet">

<g transform="translate(0.000000,964.000000) scale(0.100000,-0.100000)"
fill="#000000" stroke="none">
<path d="M4410 8937 c-3 -3 -66 -10 -140 -16 -228 -20 -332 -40 -745 -142 -35
-9 -139 -44 -305 -104 -25 -9 -59 -22 -77 -30 -17 -8 -34 -15 -38 -15 -15 0
-379 -183 -473 -238 -500 -290 -957 -702 -1279 -1152 -52 -73 -139 -203 -159
-239 -31 -54 -39 -68 -51 -82 -12 -16 -58 -99 -114 -209 -166 -328 -306 -746
-364 -1085 -7 -44 -16 -91 -19 -105 -3 -14 -16 -106 -28 -205 -17 -149 -21
-236 -22 -510 0 -452 26 -684 126 -1105 27 -114 88 -322 107 -365 4 -11 17
-45 29 -75 86 -235 188 -445 319 -665 88 -147 259 -394 332 -481 14 -17 44
-52 66 -80 107 -131 330 -361 477 -492 67 -60 196 -162 279 -222 581 -418
1171 -650 1881 -741 225 -29 658 -32 868 -5 241 30 541 91 718 147 118 38 259
86 287 99 11 5 70 30 130 56 267 114 558 281 829 478 307 223 670 588 912 916
192 261 383 610 508 930 21 52 44 111 51 130 19 49 82 247 94 295 5 22 23 96
40 165 48 195 50 208 67 330 34 254 38 325 37 650 0 324 -6 423 -37 635 -21
150 -67 370 -97 470 -4 17 -18 64 -30 105 -48 170 -62 211 -124 365 -39 99
-38 95 -124 276 -60 127 -206 383 -268 472 -18 26 -49 71 -69 100 -31 43 -73
100 -122 162 -224 287 -497 556 -767 756 -33 24 -62 46 -65 49 -9 9 -131 90
-135 90 -3 0 -44 26 -93 58 -149 100 -415 242 -572 306 -36 15 -74 31 -85 36
-100 47 -381 139 -550 179 -49 12 -106 25 -125 31 -60 15 -280 49 -395 61
-113 11 -676 25 -685 16z m685 -670 c77 -9 160 -21 185 -26 514 -110 823 -235
1225 -499 458 -300 867 -726 1124 -1169 72 -126 176 -335 215 -433 21 -52 42
-106 48 -120 52 -124 131 -410 158 -575 6 -33 15 -86 20 -117 28 -152 50 -581
31 -592 -5 -3 -12 -96 -16 -207 -4 -110 -11 -196 -15 -189 -5 8 -9 7 -13 -5
-5 -13 -18 -15 -59 -13 -49 3 -53 5 -53 28 0 20 -6 26 -28 28 -24 3 -28 7 -25
30 3 23 -1 27 -24 30 -23 3 -27 9 -33 52 -6 43 -10 49 -33 52 -21 2 -28 9 -30
31 -4 35 -42 40 -41 5 0 -13 3 -17 6 -10 7 17 23 15 23 -2 0 -10 -16 -17 -46
-22 -33 -5 -48 -12 -51 -25 -7 -27 -36 -28 -50 -1 -18 33 -17 55 2 48 10 -4
15 1 15 14 0 13 5 18 15 14 17 -7 21 11 4 21 -6 4 -7 19 -4 35 3 15 2 31 -4
34 -5 3 -12 -8 -16 -25 -4 -17 -16 -52 -27 -78 -215 -501 -639 -896 -1193
-1111 -60 -23 -119 -46 -130 -50 -82 -33 -350 -92 -565 -126 l-44 -6 24 -20
c39 -32 207 -113 385 -187 190 -79 462 -164 655 -205 217 -45 319 -57 538 -63
122 -3 225 -10 228 -15 9 -14 -101 -169 -260 -366 l-51 -63 -65 6 c-58 5 -165
24 -405 70 -159 30 -439 101 -715 180 -96 27 -523 176 -577 200 -17 8 -36 15
-42 15 -6 0 -25 7 -43 15 -18 8 -76 31 -128 51 -52 20 -108 42 -125 49 -16 8
-79 35 -140 60 -386 165 -847 430 -1105 635 -148 118 -150 120 -310 278 -190
189 -319 349 -447 557 -59 96 -180 369 -209 474 -42 152 -60 244 -79 402 -20
170 -19 242 5 424 21 169 36 234 87 385 116 344 361 695 638 914 194 154 322
227 505 289 162 54 196 64 320 89 102 20 144 23 370 23 271 0 317 -6 525 -61
480 -128 898 -464 1118 -899 118 -234 172 -519 147 -770 -47 -464 -307 -810
-745 -995 -87 -37 -168 -52 -302 -57 -170 -7 -253 5 -388 52 -430 152 -695
542 -646 954 13 112 37 189 86 277 143 255 469 403 772 350 238 -41 378 -121
582 -328 107 -109 111 -108 111 26 0 342 -280 705 -680 880 -50 22 -143 51
-230 72 -108 27 -423 27 -530 1 -269 -67 -453 -154 -615 -291 -267 -226 -439
-519 -516 -876 -20 -92 -23 -134 -23 -345 0 -213 3 -252 23 -345 91 -421 310
-776 660 -1074 34 -29 247 -176 255 -176 2 0 30 -15 63 -33 190 -107 434 -187
693 -227 229 -35 541 -24 725 25 240 65 373 118 550 220 293 169 572 464 731
773 24 47 44 92 44 101 0 8 -8 -1 -18 -20 -20 -40 -200 -229 -218 -229 -6 0
-23 -13 -37 -30 -15 -16 -34 -30 -41 -30 -8 0 -18 -5 -22 -12 -5 -7 -3 -8 7
-3 11 7 12 6 2 -6 -6 -8 -32 -25 -58 -39 -46 -25 -46 -25 -62 -5 -15 20 -15
20 -10 -1 8 -35 -4 -42 -65 -36 -52 4 -58 7 -58 27 0 16 -8 25 -25 29 -18 5
-25 13 -25 31 0 20 -5 25 -25 25 -17 0 -25 5 -25 18 0 14 2 15 10 2 9 -13 10
-13 10 0 0 13 1 13 10 0 8 -13 10 -12 10 3 0 10 -8 17 -19 17 -11 0 -23 5 -26
10 -3 6 -17 10 -31 10 -15 0 -24 6 -24 15 0 18 26 20 33 3 3 -8 6 -6 6 5 1 16
-15 21 -57 20 -8 -1 -10 6 -7 18 5 15 3 17 -11 12 -12 -4 -15 -3 -10 5 4 7 13
12 21 12 7 0 15 5 17 11 2 6 15 12 28 13 13 0 25 7 28 15 3 9 0 11 -9 6 -8 -5
-3 3 10 18 14 15 30 23 40 20 11 -3 12 -2 4 4 -10 7 -4 18 23 44 108 103 244
314 319 494 110 263 151 616 106 905 -32 200 -140 496 -254 696 -26 45 -149
225 -177 258 -10 11 -35 41 -55 66 -21 25 -44 49 -52 54 -13 7 -13 10 -2 17
21 13 27 11 34 -11 3 -11 13 -20 21 -20 8 0 12 -4 9 -10 -3 -5 -3 -10 2 -11
31 -3 47 -11 68 -33 13 -14 27 -26 31 -26 26 0 -204 189 -345 284 -73 49 -289
162 -389 204 -178 75 -423 139 -662 174 -215 31 -641 31 -860 -1 -85 -12 -171
-26 -190 -31 -19 -5 -82 -21 -140 -35 -693 -172 -1342 -627 -1744 -1224 -209
-309 -330 -571 -430 -928 -42 -148 -67 -282 -96 -498 -6 -38 -13 -164 -16
-280 -10 -361 31 -657 146 -1050 79 -270 248 -625 419 -882 32 -48 69 -98 82
-110 13 -12 83 -52 154 -88 72 -37 144 -75 160 -85 17 -10 53 -30 80 -45 108
-59 258 -143 420 -235 291 -166 487 -276 580 -325 50 -27 119 -65 155 -85 36
-21 88 -50 115 -65 454 -249 948 -542 946 -560 -1 -14 -250 -27 -381 -21 -194
10 -504 52 -625 86 -16 5 -68 18 -115 30 -88 23 -273 83 -325 106 -16 7 -59
25 -95 39 -585 240 -1151 715 -1544 1294 -372 547 -557 1071 -607 1711 -13
168 -6 612 11 735 26 189 61 388 79 455 6 19 22 78 36 130 15 52 30 104 35
115 4 11 20 56 35 100 16 44 31 85 35 90 3 6 19 44 35 85 52 133 178 371 274
515 59 91 138 202 151 215 3 3 18 23 35 45 160 218 514 553 762 722 489 332
975 514 1553 584 186 22 599 20 805 -4z m2719 -3752 c3 -9 0 -15 -9 -15 -8 0
-15 7 -15 15 0 8 4 15 9 15 5 0 11 -7 15 -15z m253 -237 c-3 -8 -6 -5 -6 6 -1
11 2 17 5 13 3 -3 4 -12 1 -19z m-1497 -12 c0 -3 -4 -8 -10 -11 -5 -3 -10 -1
-10 4 0 6 5 11 10 11 6 0 10 -2 10 -4z m1382 -523 c-6 -10 -15 -34 -21 -53 -6
-21 -9 -24 -6 -7 6 30 0 34 -21 13 -10 -10 -11 -17 -3 -21 8 -5 8 -10 0 -18
-14 -14 -14 -30 -1 -22 11 7 11 -9 0 -45 -5 -14 -9 -18 -10 -10 -1 8 -5 2 -9
-15 -3 -17 -13 -30 -21 -30 -8 0 -21 -13 -28 -28 -8 -17 -20 -27 -30 -25 -14
3 -18 17 -20 76 -3 65 -1 72 16 72 26 0 34 11 20 27 -8 11 -7 17 8 28 10 8 25
15 32 15 6 0 12 4 12 8 0 9 40 30 53 28 5 0 13 7 19 17 13 24 22 15 10 -10z
m-192 -123 c-8 -6 -24 -10 -35 -9 -15 0 -13 3 10 13 32 14 49 11 25 -4z m50
-207 c0 -20 -3 -24 -11 -16 -7 7 -9 19 -6 27 10 24 17 19 17 -11z"/>
<path d="M6580 7081 c0 -5 7 -15 17 -22 15 -13 15 -12 4 9 -12 23 -21 28 -21
13z"/>
<path d="M7221 6044 c0 -11 3 -14 6 -6 3 7 2 16 -1 19 -3 4 -6 -2 -5 -13z"/>
<path d="M7262 5880 c0 -14 2 -19 5 -12 2 6 2 18 0 25 -3 6 -5 1 -5 -13z"/>
<path d="M7294 5505 c0 -104 2 -146 3 -92 2 54 2 139 0 190 -1 51 -3 7 -3 -98z"/>
<path d="M7731 5228 c1 -18 3 -25 6 -15 4 15 7 16 20 5 14 -12 15 -11 5 9 -20
36 -32 37 -31 1z"/>
<path d="M7780 5198 c0 -2 14 -20 31 -39 17 -19 27 -25 21 -14 -10 20 -52 63
-52 53z"/>
<path d="M7261 5154 c0 -11 3 -14 6 -6 3 7 2 16 -1 19 -3 4 -6 -2 -5 -13z"/>
<path d="M7733 5120 c0 -25 2 -35 4 -22 2 12 2 32 0 45 -2 12 -4 2 -4 -23z"/>
<path d="M7890 5051 c0 -6 4 -13 10 -16 6 -3 7 1 4 9 -7 18 -14 21 -14 7z"/>
<path d="M7693 4880 c-5 -34 -6 -57 -2 -53 8 9 23 113 16 113 -2 0 -9 -27 -14
-60z"/>
<path d="M7960 4931 c0 -6 4 -13 10 -16 6 -3 7 1 4 9 -7 18 -14 21 -14 7z"/>
<path d="M8001 4870 c14 -31 19 -36 19 -24 0 6 -7 19 -16 30 -14 18 -14 18 -3
-6z"/>
<path d="M8030 4825 c0 -5 11 -28 25 -50 13 -22 24 -35 24 -30 0 6 -11 28 -24
50 -14 22 -25 36 -25 30z"/>
<path d="M7151 4794 c0 -11 3 -14 6 -6 3 7 2 16 -1 19 -3 4 -6 -2 -5 -13z"/>
<path d="M7656 4746 c-4 -21 -5 -40 -2 -43 7 -8 18 42 14 64 -3 11 -7 3 -12
-21z"/>
<path d="M8062 4430 c0 -14 2 -19 5 -12 2 6 2 18 0 25 -3 6 -5 1 -5 -13z"/>
</g>
</svg>
