<?xml version="1.0" standalone="no"?>
<!DOCTYPE svg PUBLIC "-//W3C//DTD SVG 20010904//EN"
 "http://www.w3.org/TR/2001/REC-SVG-20010904/DTD/svg10.dtd">
<svg version="1.0" xmlns="http://www.w3.org/2000/svg"
 width="1092.000000pt" height="194.000000pt" viewBox="0 0 1092.000000 194.000000"
 preserveAspectRatio="xMidYMid meet">

<g transform="translate(0.000000,194.000000) scale(0.100000,-0.100000)"
fill="#000000" stroke="none">
<path d="M488 1596 c-141 -51 -222 -129 -260 -248 -23 -77 -23 -120 2 -202 37
-119 139 -197 346 -264 110 -36 142 -56 160 -98 19 -46 8 -89 -33 -124 -30
-27 -40 -30 -102 -30 -55 0 -79 5 -128 30 -33 17 -81 48 -105 70 l-45 39 -34
-42 c-19 -23 -51 -61 -73 -84 l-38 -42 31 -40 c79 -100 175 -153 314 -173 215
-30 388 47 478 215 31 58 34 68 34 157 0 84 -3 101 -27 145 -39 75 -135 157
-208 180 -67 20 -208 80 -230 97 -71 55 -63 144 17 182 61 29 134 13 238 -52
l50 -32 25 29 c84 98 110 131 110 139 0 19 -109 109 -167 137 -52 26 -71 29
-173 32 -102 3 -123 0 -182 -21z"/>
<path d="M5025 1611 c-183 -48 -285 -176 -285 -358 0 -40 4 -81 9 -91 5 -9 15
-33 24 -52 34 -82 117 -146 281 -217 154 -67 196 -127 146 -208 -61 -98 -223
-91 -350 15 -26 22 -52 40 -58 40 -5 0 -31 -33 -58 -72 -26 -40 -52 -79 -58
-86 -14 -19 100 -126 167 -157 191 -87 424 -45 539 96 63 78 73 111 73 234 0
109 0 111 -34 162 -52 77 -97 108 -304 209 -43 20 -89 50 -102 66 -33 39 -42
92 -22 134 25 51 57 67 136 67 77 0 112 -16 190 -88 l43 -40 24 30 c88 108 92
159 18 223 -78 69 -145 95 -254 98 -52 2 -108 0 -125 -5z"/>
<path d="M1303 1593 c-2 -6 -3 -199 -1 -430 l4 -418 26 -62 c69 -165 188 -265
349 -292 303 -51 541 81 603 334 14 61 16 122 14 475 l-3 405 -140 0 -140 0
-5 -410 c-5 -407 -5 -410 -28 -447 -31 -50 -65 -75 -123 -92 -95 -29 -195 23
-243 124 -20 43 -21 64 -26 433 l-5 388 -139 2 c-97 1 -140 -1 -143 -10z"/>
<path d="M6068 1602 l-338 -2 0 -600 0 -600 345 0 345 0 0 125 0 125 -217 2
-218 3 0 115 0 115 168 3 167 2 0 59 c0 32 -3 86 -6 120 l-7 61 -163 0 -164 0
0 115 0 115 214 0 c186 0 215 2 220 16 9 23 7 222 -1 226 -5 2 -160 2 -345 0z"/>
<path d="M7410 1283 c0 -177 -4 -324 -9 -327 -10 -7 -26 7 -146 122 -50 48
-117 111 -150 141 -33 30 -138 127 -233 215 -95 89 -177 163 -182 164 -6 2
-10 -221 -10 -597 l0 -602 123 3 122 3 3 328 c1 180 5 327 9 327 4 0 54 -46
112 -103 92 -89 335 -320 527 -500 33 -31 64 -57 67 -57 4 0 7 270 7 599 l0
600 -120 3 -120 3 0 -322z"/>
<path d="M8215 1600 l-360 -5 0 -105 0 -105 110 -5 110 -5 5 -485 5 -485 125
0 125 0 5 485 5 485 125 5 125 5 3 106 c2 80 -1 108 -10 110 -7 2 -175 2 -373
-1z"/>
<path d="M2640 1000 l0 -601 128 3 127 3 3 193 2 192 49 0 50 0 34 -57 c19
-32 51 -89 72 -128 21 -38 56 -100 77 -138 l40 -67 129 0 c71 0 129 3 129 6 0
3 -33 63 -74 132 -115 199 -146 258 -146 280 0 13 18 34 48 56 44 32 68 61
114 136 84 139 48 380 -74 485 -105 90 -172 105 -485 105 l-223 0 0 -600z
m477 344 c78 -37 111 -128 75 -205 -26 -55 -38 -69 -83 -97 -30 -18 -51 -22
-123 -22 l-86 0 0 170 0 170 91 0 c64 0 101 -5 126 -16z"/>
<path d="M3740 1113 c0 -269 3 -539 7 -600 l6 -113 129 0 128 0 0 230 0 230
205 0 206 0 -3 123 -3 122 -200 5 -200 5 -3 123 -3 122 246 0 245 0 0 120 0
120 -380 0 -380 0 0 -487z"/>
<path d="M8820 1000 l0 -600 125 0 125 0 0 195 0 195 53 0 c50 0 53 -2 73 -38
11 -20 60 -108 109 -194 l89 -158 129 0 c71 0 127 3 125 8 -12 26 -76 139
-114 202 -67 109 -114 197 -114 214 0 8 10 18 22 22 33 10 134 110 157 155 27
50 51 146 51 199 0 145 -89 288 -218 354 -74 37 -147 46 -389 46 l-223 0 0
-600z m487 344 c56 -27 83 -71 83 -138 0 -65 -28 -119 -82 -157 -28 -21 -47
-24 -135 -27 l-103 -4 0 171 0 171 101 0 c73 0 111 -5 136 -16z"/>
<path d="M9710 1594 c0 -3 8 -18 18 -32 11 -15 43 -72 72 -127 29 -55 86 -157
127 -227 40 -70 73 -130 73 -132 0 -3 14 -28 30 -56 l30 -51 0 -285 0 -285
123 3 122 3 2 280 c3 305 0 283 67 400 16 27 45 82 66 120 50 95 113 213 167
313 l45 82 -125 0 -125 0 -102 -202 c-56 -112 -106 -207 -110 -212 -11 -11
-22 7 -134 224 l-95 185 -126 3 c-69 1 -125 0 -125 -4z"/>
</g>
</svg>
